<?xml version="1.0" encoding="UTF-8"?>
<svg width="120" height="40" viewBox="0 0 120 40" fill="none" xmlns="http://www.w3.org/2000/svg">
  <circle cx="20" cy="20" r="10" fill="#E74C3C"/>
  <path d="M40 15H44.5L52 30H48L46.5 26.5H38L36.5 30H32.5L40 15ZM45 23.5L42.5 18L39.5 23.5H45Z" fill="#5D6D7E"/>
  <path d="M55 15H66C68 15 69.5 15.5 70.5 16.5C71.5 17.5 72 18.8 72 20.5C72 21.8 71.7 22.9 71 23.7C70.3 24.5 69.3 25 68 25L72 30H68.5L64.7 25H58V30H55V15ZM65.5 22C66.3 22 67 21.8 67.5 21.3C68 20.8 68.3 20.2 68.3 19.5C68.3 18.8 68.1 18.2 67.6 17.7C67.1 17.2 66.4 17 65.5 17H58V22H65.5Z" fill="#5D6D7E"/>
  <path d="M76 15H79V30H76V15Z" fill="#5D6D7E"/>
  <path d="M84 15H95.5C96.8 15 98 15.4 99 16.2C100 17 100.5 18.2 100.5 19.7C100.5 21.2 100 22.3 99 23.2C98 24.1 96.8 24.5 95.5 24.5H87V30H84V15ZM95 21.5C95.7 21.5 96.2 21.3 96.6 20.9C97 20.5 97.2 20 97.2 19.3C97.2 18.6 97 18.1 96.6 17.7C96.2 17.3 95.7 17.1 95 17.1H87V21.5H95Z" fill="#5D6D7E"/>
  <path d="M104 15H116V18H107V21H115V24H107V27H116V30H104V15Z" fill="#5D6D7E"/>
</svg>
